<?xml version="1.0" encoding="utf-8"?><svg viewBox="0 0 448 512" xmlns="http://www.w3.org/2000/svg" xmlns:xlink="http://www.w3.org/1999/xlink"><style>:root>svg{display:none}:root>svg:target{display:block}</style><svg viewBox="0 0 36 36" id="arrow-solid" xmlns="http://www.w3.org/2000/svg">
    <path fill="currentColor" d="M18 2a16 16 0 1 0 16 16A16 16 0 0 0 18 2m8 15.57a1.43 1.43 0 0 1-2 0L19.4 13v14.14a1.4 1.4 0 0 1-2.8 0v-14l-4.43 4.43a1.4 1.4 0 0 1-2-2l7.91-7.87L26 15.59a1.4 1.4 0 0 1 0 1.98" class="aclr-i-solid aclr-i-solid-path-1"/>
    <path fill="none" d="M0 0h36v36H0z"/>
</svg><svg viewBox="0 0 24 24" id="arrow-up" xmlns="http://www.w3.org/2000/svg">
    <path fill="currentColor" d="m13 5.586-4.707 4.707a.999.999 0 1 0 1.414 1.414L12 9.414V17a1 1 0 1 0 2 0V9.414l2.293 2.293a.997.997 0 0 0 1.414 0 .999.999 0 0 0 0-1.414z"/>
</svg><svg fill="none" viewBox="0 0 24 24" id="calling" xmlns="http://www.w3.org/2000/svg">
    <path fill-rule="evenodd" clip-rule="evenodd" d="M14.356 2.008a.817.817 0 0 0-.626.176.853.853 0 0 0-.322.584.86.86 0 0 0 .757.95 6.912 6.912 0 0 1 6.125 6.139.857.857 0 1 0 1.704-.192c-.454-4.058-3.594-7.206-7.638-7.657Zm.062 3.482a.854.854 0 0 0-1.004.68.862.862 0 0 0 .677 1.01 3.462 3.462 0 0 1 2.744 2.75.86.86 0 0 0 1.006.681.865.865 0 0 0 .677-1.01 5.174 5.174 0 0 0-4.1-4.111ZM16 15.09c.451-.26.962-.554 1.605-.417.582.123 2.568 1.735 3.112 2.293.356.366.555.744.585 1.122.054 1.482-1.96 3.174-2.326 3.384a2.825 2.825 0 0 1-1.69.528c-.65 0-1.375-.185-2.166-.554-4.29-1.79-10.844-8.215-12.577-12.472-.72-1.585-.724-2.892-.012-3.874.284-.461 1.902-2.387 3.35-2.326.386.033.76.231 1.128.59.556.545 2.128 2.537 2.249 3.122.134.65-.16 1.166-.422 1.62a7.681 7.681 0 0 1-.214.34c-.313.48-.73 1.121-.582 1.53 1.057 2.594 3.498 4.858 6.093 5.921.401.146 1.042-.274 1.521-.588a7.89 7.89 0 0 1 .335-.212L16 15.09Z" fill="#E43071"/>
</svg><svg fill="none" viewBox="0 0 14 14" id="f-globe" xmlns="http://www.w3.org/2000/svg">
    <path fill-rule="evenodd" clip-rule="evenodd" d="M13.4 7.227a6.405 6.405 0 0 1-.504 2.487 6.449 6.449 0 0 1-2.318 2.811c-.342.23-.708.429-1.087.59a6.423 6.423 0 0 1-6.07-.59 6.452 6.452 0 0 1-2.318-2.811A6.37 6.37 0 0 1 .73 5.94a6.355 6.355 0 0 1 .964-2.287 6.453 6.453 0 0 1 1.728-1.725A6.337 6.337 0 0 1 5.71.966a6.45 6.45 0 0 1 3.78.371A6.423 6.423 0 0 1 13.27 5.94c.087.42.131.853.131 1.287ZM4.668 2.29A5.466 5.466 0 0 0 1.65 6.101c.144.002 2.422.03 5.046-.666a32.86 32.86 0 0 0-2.03-3.145ZM7.15 6.275c-2.814.842-5.515.781-5.612.777-.001.06-.004.116-.004.175 0 1.402.53 2.68 1.4 3.646-.001-.002 1.494-2.652 4.444-3.605.071-.023.144-.045.215-.065-.137-.31-.286-.621-.443-.928Zm3.46-3.145A5.443 5.443 0 0 0 7 1.77c-.444 0-.875.053-1.288.152.082.11 1.108 1.47 2.043 3.184 2.062-.772 2.84-1.956 2.854-1.976ZM7.965 8.107l-.036.012c-3.225 1.123-4.278 3.385-4.29 3.41a5.459 5.459 0 0 0 5.494.723 22.694 22.694 0 0 0-1.168-4.145Zm2.088 3.646a5.46 5.46 0 0 0 2.342-3.661 7.94 7.94 0 0 0-3.406-.238 23.6 23.6 0 0 1 1.064 3.899ZM8.176 5.919a17.209 17.209 0 0 1 .481 1.074c1.878-.236 3.727.161 3.806.177a5.426 5.426 0 0 0-1.242-3.41c-.01.014-.887 1.279-3.045 2.159Z" fill="#fff"/>
</svg><svg fill="none" viewBox="0 0 14 14" id="f-insta" xmlns="http://www.w3.org/2000/svg">
    <path fill-rule="evenodd" clip-rule="evenodd" d="M7 .835c-1.738 0-1.956.008-2.638.04-.682.03-1.147.138-1.554.296-.42.164-.778.383-1.133.738a3.142 3.142 0 0 0-.74 1.134C.778 3.45.67 3.915.64 4.596.608 5.28.6 5.497.6 7.236c0 1.738.008 1.955.039 2.638.031.681.139 1.146.297 1.553.164.421.382.778.738 1.134.356.356.713.575 1.133.739.408.158.873.266 1.554.297.683.031.9.039 2.639.039 1.738 0 1.956-.008 2.638-.04.681-.03 1.147-.138 1.554-.296.421-.164.778-.383 1.133-.74.356-.355.575-.712.739-1.133.157-.407.265-.872.297-1.553.031-.683.039-.9.039-2.638 0-1.739-.008-1.957-.039-2.64-.032-.68-.14-1.146-.297-1.553a3.141 3.141 0 0 0-.739-1.134 3.128 3.128 0 0 0-1.133-.738c-.408-.158-.873-.266-1.555-.297C8.955.843 8.737.835 7 .835H7ZM6.427 1.99h.575c1.708 0 1.91.006 2.586.037.624.028.962.132 1.188.22.299.116.512.255.736.479.224.224.362.437.478.736.088.225.192.564.22 1.188.032.674.038.877.038 2.585s-.006 1.91-.037 2.585c-.029.624-.133.963-.22 1.188a1.979 1.979 0 0 1-.48.736 1.98 1.98 0 0 1-.735.478c-.225.088-.564.192-1.188.22-.675.031-.878.038-2.586.038-1.71 0-1.912-.006-2.587-.037-.624-.029-.962-.133-1.188-.22a1.982 1.982 0 0 1-.736-.48 1.984 1.984 0 0 1-.479-.735c-.088-.226-.192-.564-.22-1.188-.031-.675-.037-.877-.037-2.587 0-1.709.006-1.91.037-2.585.028-.624.132-.963.22-1.188.116-.299.255-.512.479-.736.224-.224.437-.363.736-.48.226-.087.564-.191 1.188-.22.59-.026.82-.034 2.012-.036v.002Zm3.99 1.062a.768.768 0 1 0 0 1.536.768.768 0 0 0 0-1.536Zm-3.415.898a3.287 3.287 0 1 0 0 6.573A3.287 3.287 0 0 0 7 3.95Zm0 1.153A2.133 2.133 0 1 1 7 9.37a2.133 2.133 0 0 1 0-4.267Z" fill="#fff"/>
</svg><svg fill="none" viewBox="0 0 12 11" id="f-twitter" xmlns="http://www.w3.org/2000/svg">
    <path fill-rule="evenodd" clip-rule="evenodd" d="m5.64 2.989.026.415-.42-.05c-1.528-.195-2.862-.856-3.995-1.967L.697.837l-.143.406c-.302.907-.11 1.865.52 2.509.336.356.26.406-.319.195-.201-.068-.377-.119-.394-.094-.059.06.143.83.302 1.136.218.424.663.839 1.15 1.085l.411.195-.486.008c-.47 0-.487.008-.437.186.168.551.831 1.136 1.57 1.39l.52.178-.453.271c-.672.39-1.46.61-2.25.627-.377.009-.688.043-.688.068 0 .085 1.024.56 1.62.746 1.788.55 3.911.313 5.506-.627 1.133-.67 2.267-2 2.795-3.288.286-.687.571-1.94.571-2.542 0-.39.025-.441.495-.907.277-.271.538-.568.588-.653.084-.16.075-.16-.353-.017-.713.255-.814.22-.461-.16.26-.272.57-.763.57-.907 0-.026-.125.017-.268.093a4.684 4.684 0 0 1-.739.288l-.453.144-.411-.28C9.233.735 8.914.565 8.746.515 8.318.396 7.663.413 7.277.549c-1.049.38-1.712 1.364-1.636 2.44Z" fill="#fff"/>
</svg><svg fill="none" viewBox="0 0 14 11" id="f-youtube" xmlns="http://www.w3.org/2000/svg">
    <path fill-rule="evenodd" clip-rule="evenodd" d="M12 1.11c.552.151.985.597 1.133 1.162.267 1.025.267 3.163.267 3.163s0 2.139-.268 3.164a1.625 1.625 0 0 1-1.131 1.162c-.998.274-5.001.274-5.001.274s-4.003 0-5-.274A1.625 1.625 0 0 1 .866 8.599C.6 7.574.6 5.435.6 5.435s0-2.138.267-3.163c.148-.565.581-1.01 1.132-1.162C2.997.835 7 .835 7 .835s4.003 0 5 .275ZM5.8 3.635v4l3.2-2-3.2-2Z" fill="#fff"/>
</svg><svg fill="none" viewBox="0 0 15 30" id="facebook" xmlns="http://www.w3.org/2000/svg">
    <path d="M9.709 29.945v-13.66h4.41l.66-5.323H9.71V7.564c0-1.542.412-2.592 2.537-2.592l2.712-.001V.21C14.488.145 12.879 0 11.007 0 7.097 0 4.42 2.48 4.42 7.037v3.925H.001v5.324h4.42v13.659H9.71Z" fill="#E43071"/>
</svg><svg viewBox="0 0 448 512" id="instagram" xmlns="http://www.w3.org/2000/svg">
    <path d="M224.1 141c-63.6 0-114.9 51.3-114.9 114.9s51.3 114.9 114.9 114.9S339 319.5 339 255.9 287.7 141 224.1 141zm0 189.6c-41.1 0-74.7-33.5-74.7-74.7s33.5-74.7 74.7-74.7 74.7 33.5 74.7 74.7-33.6 74.7-74.7 74.7zm146.4-194.3c0 14.9-12 26.8-26.8 26.8-14.9 0-26.8-12-26.8-26.8s12-26.8 26.8-26.8 26.8 12 26.8 26.8zm76.1 27.2c-1.7-35.9-9.9-67.7-36.2-93.9-26.2-26.2-58-34.4-93.9-36.2-37-2.1-147.9-2.1-184.9 0-35.8 1.7-67.6 9.9-93.9 36.1s-34.4 58-36.2 93.9c-2.1 37-2.1 147.9 0 184.9 1.7 35.9 9.9 67.7 36.2 93.9s58 34.4 93.9 36.2c37 2.1 147.9 2.1 184.9 0 35.9-1.7 67.7-9.9 93.9-36.2 26.2-26.2 34.4-58 36.2-93.9 2.1-37 2.1-147.8 0-184.8zM398.8 388c-7.8 19.6-22.9 34.7-42.6 42.6-29.5 11.7-99.5 9-132.1 9s-102.7 2.6-132.1-9c-19.6-7.8-34.7-22.9-42.6-42.6-11.7-29.5-9-99.5-9-132.1s-2.6-102.7 9-132.1c7.8-19.6 22.9-34.7 42.6-42.6 29.5-11.7 99.5-9 132.1-9s102.7-2.6 132.1 9c19.6 7.8 34.7 22.9 42.6 42.6 11.7 29.5 9 99.5 9 132.1s2.7 102.7-9 132.1z"/>
</svg><svg fill="none" viewBox="0 0 24 24" id="location" xmlns="http://www.w3.org/2000/svg">
    <path fill-rule="evenodd" clip-rule="evenodd" d="M3.5 10.318C3.5 5.718 7.344 2 11.993 2c4.663 0 8.507 3.718 8.507 8.318 0 2.318-.843 4.47-2.23 6.294a22.063 22.063 0 0 1-5.541 5.14c-.486.318-.925.342-1.459 0a21.64 21.64 0 0 1-5.54-5.14c-1.388-1.824-2.23-3.976-2.23-6.294Zm5.694.259c0 1.54 1.258 2.753 2.8 2.753 1.542 0 2.812-1.212 2.812-2.753 0-1.53-1.27-2.8-2.813-2.8a2.814 2.814 0 0 0-2.799 2.8Z" fill="#E43071"/>
</svg><svg fill="none" viewBox="0 0 24 24" id="message" xmlns="http://www.w3.org/2000/svg">
    <path fill-rule="evenodd" clip-rule="evenodd" d="M16.94 3A5.057 5.057 0 0 1 22 8.05v7.9c0 2.79-2.27 5.05-5.06 5.05H7.06A5.057 5.057 0 0 1 2 15.95v-7.9A5.05 5.05 0 0 1 7.06 3h9.88Zm1.59 6.54.08-.08a.773.773 0 0 0-.01-1 .84.84 0 0 0-.53-.26.76.76 0 0 0-.56.2L13 12a1.566 1.566 0 0 1-2 0L6.5 8.4a.76.76 0 0 0-1 .07c-.27.27-.3.7-.07 1l.13.13 4.55 3.55a3.143 3.143 0 0 0 3.91 0l4.51-3.61Z" fill="#E43071"/>
</svg><svg viewBox="0 0 24 24" id="youtube" xmlns="http://www.w3.org/2000/svg">
    <path d="M4.652 0h1.44l.988 3.702L7.996 0H9.45L7.785 5.505v3.757H6.354V5.505L4.652 0zm6.594 2.373c-1.119 0-1.861.74-1.861 1.835v3.349c0 1.204.629 1.831 1.861 1.831 1.022 0 1.826-.683 1.826-1.831V4.208c0-1.069-.797-1.835-1.826-1.835zm.531 5.127c0 .372-.19.646-.532.646-.351 0-.554-.287-.554-.646V4.321c0-.374.172-.651.529-.651.39 0 .557.269.557.651V7.5zm4.729-5.07v5.186c-.155.194-.5.512-.747.512-.271 0-.338-.186-.338-.46V2.43h-1.27v5.71c0 .675.206 1.22.887 1.22.384 0 .918-.2 1.468-.853v.754h1.27V2.43h-1.27zm2.203 13.858c-.448 0-.541.315-.541.763v.659h1.069v-.66c.001-.44-.092-.762-.528-.762zm-4.703.04a.927.927 0 0 0-.25.198v4.055c.099.106.194.182.287.229.197.1.485.107.619-.067.07-.092.105-.241.105-.449v-3.359c0-.22-.043-.386-.129-.5-.147-.193-.42-.214-.632-.107zm4.827-5.195c-2.604-.177-11.066-.177-13.666 0C2.353 11.325 2.021 13.025 2 17.5c.021 4.467.35 6.175 3.167 6.367 2.6.177 11.062.177 13.666 0 2.814-.192 3.146-1.893 3.167-6.367-.021-4.467-.35-6.175-3.167-6.367zM6.509 21.819H5.146v-7.54h-1.41v-1.28h4.182v1.28h-1.41v7.54zm4.846 0h-1.21v-.718a2.645 2.645 0 0 1-.696.605c-.652.374-1.547.365-1.547-.955v-5.438h1.209v4.988c0 .262.063.438.322.438.236 0 .564-.303.711-.487v-4.939h1.21v6.506zm4.657-1.348c0 .805-.301 1.431-1.106 1.431-.443 0-.812-.162-1.149-.583v.5h-1.221v-8.82h1.221v2.84c.273-.333.644-.608 1.076-.608.886 0 1.18.749 1.18 1.631v3.609zm4.471-1.752h-2.314v1.228c0 .488.042.91.528.91.511 0 .541-.344.541-.91v-.452h1.245v.489c0 1.253-.538 2.013-1.813 2.013-1.155 0-1.746-.842-1.746-2.013v-2.921c0-1.129.746-1.914 1.837-1.914 1.161 0 1.721.738 1.721 1.914v1.656z"/>
</svg></svg>